<?xml version="1.0" standalone="no"?>
<!DOCTYPE svg PUBLIC "-//W3C//DTD SVG 20010904//EN"
 "http://www.w3.org/TR/2001/REC-SVG-20010904/DTD/svg10.dtd">
<svg version="1.0" xmlns="http://www.w3.org/2000/svg"
 width="680.000000pt" height="680.000000pt" viewBox="0 0 680.000000 680.000000"
 preserveAspectRatio="xMidYMid meet">
<metadata>
Created by potrace 1.11, written by Peter Selinger 2001-2013
</metadata>
<g transform="translate(0.000000,680.000000) scale(0.100000,-0.100000)"
fill="#000000" stroke="none">
<path d="M3105 6740 c-670 -60 -1266 -299 -1796 -721 -112 -90 -244 -213 -379
-354 -398 -419 -698 -981 -823 -1545 -96 -431 -101 -915 -16 -1350 110 -558
342 -1062 697 -1510 100 -126 391 -415 522 -519 512 -406 1111 -642 1780 -701
63 -5 157 -10 208 -10 l92 0 0 840 0 840 840 0 840 0 0 835 0 835 840 0 840 0
0 88 c-1 438 -123 959 -325 1379 -495 1029 -1483 1728 -2657 1878 -146 19
-523 27 -663 15z m495 -1691 c337 -39 679 -199 945 -443 288 -263 473 -636
515 -1038 5 -51 10 -112 10 -135 l0 -43 -840 0 -840 0 0 -840 0 -840 -59 0
c-231 0 -552 88 -766 211 -432 248 -737 685 -826 1185 -30 167 -30 413 0 578
118 662 646 1204 1310 1346 170 37 347 43 551 19z"/>
</g>
</svg>
